<svg width="26" height="26" viewBox="0 0 26 26" fill="none" xmlns="http://www.w3.org/2000/svg">
<path d="M4.08356 21.4684C3.83318 21.9607 4.02927 22.5627 4.52154 22.8131C5.01381 23.0635 5.61584 22.8674 5.86622 22.3751L4.97489 21.9218L4.08356 21.4684ZM20.1338 22.3751C20.3842 22.8673 20.9862 23.0634 21.4785 22.8131C21.9707 22.5627 22.1668 21.9606 21.9164 21.4684L21.0251 21.9217L20.1338 22.3751ZM25 13H24C24 19.0751 19.0751 24 13 24V25V26C20.1797 26 26 20.1797 26 13H25ZM13 25V24C6.92487 24 2 19.0751 2 13H1H0C0 20.1797 5.8203 26 13 26V25ZM1 13H2C2 6.92487 6.92487 2 13 2V1V0C5.8203 0 0 5.8203 0 13H1ZM13 1V2C19.0751 2 24 6.92487 24 13H25H26C26 5.8203 20.1797 0 13 0V1ZM18 12H17C17 14.2091 15.2091 16 13 16V17V18C16.3137 18 19 15.3137 19 12H18ZM13 17V16C10.7909 16 9 14.2091 9 12H8H7C7 15.3137 9.68629 18 13 18V17ZM8 12H9C9 9.79086 10.7909 8 13 8V7V6C9.68629 6 7 8.68629 7 12H8ZM13 7V8C15.2091 8 17 9.79086 17 12H18H19C19 8.68629 16.3137 6 13 6V7ZM4.97489 21.9218L5.86622 22.3751C6.53582 21.0586 7.55666 19.9531 8.81573 19.1809L8.29292 18.3284L7.77012 17.476C6.19642 18.4411 4.92048 19.8229 4.08356 21.4684L4.97489 21.9218ZM8.29292 18.3284L8.81573 19.1809C10.0748 18.4087 11.523 18 13 18L13 17L13 16C11.1539 16 9.34382 16.5109 7.77012 17.476L8.29292 18.3284ZM13 17L13 18C14.477 18 15.9252 18.4087 17.1843 19.1809L17.7071 18.3284L18.2299 17.476C16.6562 16.5108 14.8461 16 13 16L13 17ZM17.7071 18.3284L17.1843 19.1809C18.4433 19.9531 19.4642 21.0586 20.1338 22.3751L21.0251 21.9217L21.9164 21.4684C21.0795 19.8229 19.8036 18.4411 18.2299 17.476L17.7071 18.3284Z" fill="#9F9F9F"/>
</svg>
